# xmcd
#
# Track frame offsets: 
#        150
#        12309
#        24856
#        38854
#        51756
#        78665
#        92890
#        108468
#        123080
#        138904
#        155341
#        171064
#        183088
#        196280
#        209265
#        223745
#        233548
#        250156
#        263239
#        275960
#
# Disc length: 3869 seconds
#
# Revision: 1
# Processed by: cddbd v1.5.1PL0 Copyright (c) Steve Scherf et al.
# Submitted via: ExactAudioCopy v0.95b2
#
DISCID=110f1b14
DTITLE=Various Artist - Jazz in Paris 2 (Montmartre 1924-1939) - Disc
DTITLE=1 (L'Age D'Or)
DYEAR=2004
DGENRE=Jazz
TTITLE0=Louis Armstrong Et Son Orchestre - Saint Louis Blues (7 Novemb
TTITLE0=er 1934)
TTITLE1=Louis Armstrong Et Son Orchestre - Will You, Won't You Be My B
TTITLE1=aby? (7 November 1934)
TTITLE2=Louis Armstrong Et Son Orchestre - Super Tiger Rag (7 November
TTITLE2=1934)
TTITLE3=Louis Armstrong Et Son Orchestre - Song of the Vipers (7 Novem
TTITLE3=ber 1934)
TTITLE4=Louis Armstrong Et Son Orchestre - On the Sunny Side of the St
TTITLE4=reet (7 November 1934)
TTITLE5=Marlene Dietrich Accompagnee Par Freddy Johnson - Wo ist der M
TTITLE5=ann (19 July 1933)
TTITLE6=Freddy Johnson and His Harlemites Featuring Arthur Briggs - I 
TTITLE6=Got Rhythm (14 October 1933)
TTITLE7=Freddy Johnson and His Harlemites Featuring Arthur Briggs - Ha
TTITLE7=rlem Bound (14 October 1933)
TTITLE8=Arthur Briggs - Grabbin' Blues (June 1933)
TTITLE9=Arthur Briggs - Japanese Sandman (June 1933)
TTITLE10=Michel Warlop Et Son Orchestre - Novel Pets (17 April 1936)
TTITLE11=Michel Warlop Et Son Orchestre - Budding Dancers (17 April 19
TTITLE11=36)
TTITLE12=Danny Polo Sextet - China Boy (30 January 1939)
TTITLE13=Danny Polo Trio - Montmartre Moan (30 January 1939)
TTITLE14=Herman Chittison - Trees (9 July 1934)
TTITLE15=Ensemble Swing Du Hot Club Colonial - Georgina (9 January 194
TTITLE15=4)
TTITLE16=Fredy Jumbo Er Son Ensemble Dirige Par Charles-Henry -  Voyag
TTITLE16=e au Long Cours (7 January 1943)
TTITLE17=Wal-Berg Et Son Jazz Francais - Love Again (26 October 1937)
TTITLE18=Orchestre Musette "Swing Royal" - Philippe's Stomp (20 March 
TTITLE18=1940)
TTITLE19=Mitchell's Jazz Kings - Stumbling (19 July 1922)
EXTD=YEAR: 1930
EXTT0=
EXTT1=
EXTT2=
EXTT3=
EXTT4=
EXTT5=
EXTT6=
EXTT7=
EXTT8=
EXTT9=
EXTT10=
EXTT11=
EXTT12=
EXTT13=
EXTT14=
EXTT15=
EXTT16=
EXTT17=
EXTT18=
EXTT19=
PLAYORDER=
